<!-- icon666.com - MILLIONS OF FREE VECTOR ICONS --><svg id="Layer_1" enable-background="new 0 0 128 128" viewBox="0 0 128 128" xmlns="http://www.w3.org/2000/svg"><g><g><path d="m22 110.99h88c3.309 0 6-2.691 6-6v-77.98c0-3.309-2.691-6-6-6h-88c-3.309 0-6 2.691-6 6v77.98c0 3.309 2.691 6 6 6z" fill="#e6e7e8"></path></g><g><g><g><g><g><g><g><path d="m111 23.01v10.78h-98v-10.78c0-2.761 2.239-5 5-5h88c2.761 0 5 2.239 5 5z" fill="#0089ef"></path></g><g><path d="m18 18.01c-2.761 0-5 2.239-5 5v3c0-2.76 2.24-5 5-5h88c2.77 0 5 2.24 5 5v-3c0-2.761-2.239-5-5-5z" fill="#fff"></path></g><g><path d="m103.041 23.289c-1.287 0-2.33 1.043-2.33 2.33s1.043 2.33 2.33 2.33 2.33-1.043 2.33-2.33-1.044-2.33-2.33-2.33z" fill="#fa759e"></path><path d="m93.565 23.289c-1.287 0-2.33 1.043-2.33 2.33s1.043 2.33 2.33 2.33 2.33-1.043 2.33-2.33-1.043-2.33-2.33-2.33z" fill="#ffd7e5"></path><path d="m84.089 23.289c-1.287 0-2.33 1.043-2.33 2.33s1.043 2.33 2.33 2.33 2.33-1.043 2.33-2.33-1.044-2.33-2.33-2.33z" fill="#d4fbff"></path></g><path d="m111 33.79v67.2c0 2.761-2.239 5-5 5h-88c-2.761 0-5-2.239-5-5v-67.2z" fill="#d4fbff"></path></g></g></g></g></g><g><path d="m76.563 45.719c-1.513-1.677-3.689-2.639-5.952-2.639-1.991 0-3.9.73-5.38 2.066l-3.341 3.02-2.829-2.83c-1.514-1.514-3.532-2.345-5.673-2.345-2.148 0-4.159.832-5.673 2.345-1.52 1.52-2.352 3.532-2.352 5.673 0 .907.15 1.8.443 2.639h3.791c-1.255-1.8-1.077-4.295.525-5.898 1.807-1.8 4.725-1.8 6.525 0l2.898 2.898c-.588.882-.9 1.923-.995 3h3.259.177 3.28c-.116-1.064-.484-2.073-1.07-2.966l3.32-3.007c1.895-1.705 4.814-1.561 6.518.334.798.88 1.193 1.991 1.193 3.089 0 .893-.259 1.786-.771 2.55h3.77c.232-.682.361-1.405.402-2.141.103-2.14-.627-4.199-2.065-5.788z" fill="#ffd7e5"></path><path d="m42.824 66.071v27.308c0 1.883 1.526 3.409 3.409 3.409h31.534c1.883 0 3.409-1.526 3.409-3.409v-27.308z" fill="#fa759e"></path><path d="m81.091 53.647h-38.182c-1.883 0-3.409 1.526-3.409 3.409v5.606c0 1.883 1.526 3.409 3.409 3.409h38.182c1.883 0 3.409-1.526 3.409-3.409v-5.606c0-1.883-1.526-3.409-3.409-3.409z" fill="#fa759e"></path><g fill="#ffd7e5"><path d="m55.788 53.647h12.424v12.424h-12.424z"></path><path d="m56.46 66.071h11.08v30.717h-11.08z"></path></g></g><path d="m92.576 42.992.798 2.354c.493 1.456 1.636 2.599 3.092 3.092l2.354.798-2.354.798c-1.456.493-2.599 1.636-3.092 3.092l-.798 2.354-.798-2.354c-.493-1.456-1.636-2.599-3.092-3.092l-2.354-.798 2.354-.798c1.456-.493 2.599-1.636 3.092-3.092z" fill="#6dc9f7"></path><path d="m29.938 65.716 1.135 3.349c.702 2.071 2.328 3.697 4.399 4.399l3.349 1.135-3.349 1.135c-2.071.702-3.697 2.328-4.399 4.399l-1.135 3.349-1.135-3.349c-.702-2.071-2.328-3.697-4.399-4.399l-3.349-1.135 3.349-1.135c2.071-.702 3.697-2.328 4.399-4.399z" fill="#6dc9f7"></path><g><path d="m98.821 58.327.561 1.655c.347 1.023 1.15 1.827 2.173 2.173l1.655.561-1.655.561c-1.023.347-1.827 1.15-2.173 2.173l-.561 1.655-.561-1.655c-.347-1.023-1.15-1.827-2.173-2.173l-1.655-.561 1.655-.561c1.023-.347 1.827-1.15 2.173-2.173z" fill="#6dc9f7"></path><g fill="#3a2c60"><path d="m106 17.01h-41.822c-.553 0-1 .448-1 1s.447 1 1 1h41.822c2.206 0 4 1.794 4 4v9.78h-96v-9.78c0-2.206 1.794-4 4-4h29.284c.553 0 1-.448 1-1s-.447-1-1-1h-29.284c-3.309 0-6 2.691-6 6v77.98c0 3.309 2.691 6 6 6h88c3.309 0 6-2.691 6-6v-77.98c0-3.309-2.691-6-6-6zm4 83.98c0 2.206-1.794 4-4 4h-88c-2.206 0-4-1.794-4-4v-66.2h96z"></path><path d="m52.494 19.01h6.684c.553 0 1-.448 1-1s-.447-1-1-1h-6.684c-.553 0-1 .448-1 1s.447 1 1 1z"></path><path d="m41.824 66.92v26.459c0 2.431 1.978 4.409 4.409 4.409h10.227 11.08 10.227c2.432 0 4.409-1.978 4.409-4.409v-26.459c1.906-.487 3.324-2.203 3.324-4.258v-5.606c0-2.431-1.978-4.409-4.409-4.409h-1.594c.061-.355.11-.716.131-1.091.114-2.415-.711-4.726-2.324-6.508-1.701-1.886-4.141-2.967-6.693-2.967-2.241 0-4.39.825-6.051 2.324l-2.635 2.383-2.157-2.157c-1.702-1.701-3.968-2.638-6.38-2.638s-4.678.937-6.38 2.638c-1.706 1.706-2.646 3.972-2.646 6.38 0 .554.054 1.1.152 1.636h-1.605c-2.432 0-4.409 1.978-4.409 4.409v5.606c0 2.054 1.419 3.771 3.324 4.258zm2 26.458v-26.307h11.636v28.717h-9.227c-1.328 0-2.409-1.081-2.409-2.41zm6.346-40.731c-.702-1.376-.462-3.067.658-4.187 1.412-1.408 3.706-1.408 5.112-.001l2.356 2.356c-.278.561-.478 1.175-.608 1.832h-1.9zm15.296-1.766 2.718-2.461c.719-.646 1.639-.978 2.611-.928.965.048 1.851.47 2.498 1.19.602.664.934 1.522.934 2.417 0 .542-.12 1.069-.349 1.547h-5.666-2.11c-.14-.611-.349-1.202-.636-1.765zm-6.929 3.766c.004 0 .008.002.012.002h6.716c.004 0 .008-.002.011-.002h1.936v10.424h-10.424v-10.424zm-1.077 41.141v-28.717h9.08v28.717zm22.716-2.41c0 1.329-1.081 2.409-2.409 2.409h-9.227v-28.716h11.636zm3.324-36.322v5.606c0 1.329-1.081 2.409-2.409 2.409h-11.879v-10.424h11.879c1.328 0 2.409 1.08 2.409 2.409zm-37.138-6.046c0-1.874.731-3.638 2.06-4.966 1.324-1.323 3.088-2.052 4.966-2.052s3.642.729 4.966 2.052l2.829 2.83c.375.377.981.392 1.378.035l3.34-3.02c1.292-1.166 2.965-1.808 4.71-1.808 1.987 0 3.887.841 5.21 2.309 0 0 0 .001.001.001 1.256 1.387 1.898 3.188 1.81 5.062-.023.414-.078.813-.162 1.194h-1.46c.143-.498.216-1.018.216-1.547 0-1.393-.516-2.728-1.45-3.757-1.002-1.115-2.381-1.771-3.88-1.847-1.514-.078-2.936.436-4.053 1.44l-3.32 3.007c-.365.331-.436.878-.165 1.291.294.447.521.92.678 1.414h-4.301c.144-.535.358-1.018.642-1.443.265-.396.212-.925-.125-1.262l-2.897-2.897c-2.186-2.186-5.746-2.186-7.939 0-1.5 1.5-1.995 3.663-1.404 5.602h-1.458c-.127-.533-.192-1.08-.192-1.638zm-5.862 6.046c0-1.329 1.081-2.409 2.409-2.409h11.879v10.424h-11.879c-1.328 0-2.409-1.081-2.409-2.409z"></path><path d="m86.011 50.184 2.354.798c1.153.391 2.075 1.313 2.466 2.466l.798 2.354c.138.406.519.679.947.679s.81-.273.947-.679l.798-2.354c.391-1.153 1.313-2.075 2.466-2.466l2.354-.798c.405-.138.679-.519.679-.947s-.273-.81-.68-.947l-2.354-.797c-1.153-.391-2.075-1.313-2.466-2.466l-.798-2.354c-.138-.406-.519-.679-.947-.679s-.81.273-.947.679l-.798 2.354c-.391 1.153-1.313 2.075-2.465 2.466l-2.354.797c-.406.138-.68.519-.68.947s.274.809.68.947zm6.565-4.123c.601 1.425 1.75 2.575 3.175 3.175-1.425.601-2.574 1.751-3.175 3.176-.601-1.425-1.75-2.575-3.175-3.176 1.425-.6 2.575-1.75 3.175-3.175z"></path><path d="m20.734 75.545 3.349 1.135c1.765.598 3.175 2.008 3.772 3.772l1.135 3.35c.138.406.519.679.947.679s.81-.273.947-.679l1.135-3.349c.598-1.765 2.009-3.175 3.773-3.772l3.349-1.135c.405-.138.679-.519.679-.947s-.273-.81-.679-.947l-3.349-1.135c-1.765-.598-3.176-2.008-3.773-3.772l-1.135-3.35c-.138-.406-.519-.679-.947-.679s-.81.273-.947.679l-1.135 3.35c-.598 1.764-2.008 3.174-3.772 3.772l-3.349 1.135c-.405.138-.679.519-.679.947s.274.809.679.946zm3.992-1.134c2.351-.796 4.229-2.675 5.024-5.025l.188-.554.188.554c.797 2.35 2.676 4.228 5.025 5.024l.554.188-.554.188c-2.35.796-4.229 2.674-5.025 5.025l-.188.554-.188-.554c-.796-2.35-2.674-4.229-5.024-5.025l-.554-.188z"></path><path d="m98.82 57.327c-.429 0-.81.273-.947.679l-.561 1.655c-.245.724-.823 1.302-1.546 1.547l-1.655.561c-.406.138-.68.519-.68.947s.273.81.679.947l1.656.561c.723.245 1.301.823 1.546 1.547l.561 1.655c.138.406.519.679.947.679s.81-.273.947-.679l.561-1.655c.245-.724.823-1.302 1.548-1.547l1.654-.562c.405-.137.679-.519.679-.947 0-.429-.273-.81-.679-.947l-1.654-.561c-.725-.245-1.303-.823-1.548-1.547l-.561-1.655c-.137-.405-.518-.678-.947-.678zm1.575 5.388c-.646.384-1.19.928-1.574 1.574-.384-.646-.928-1.19-1.574-1.574.646-.384 1.19-.927 1.574-1.574.383.647.927 1.191 1.574 1.574z"></path></g></g></g></g></svg>